<svg xmlns="http://www.w3.org/2000/svg" style="display: none">

  <symbol id="facebook" viewbox="0 0 24 24">
    <path d="M0 0v24h24v-24h-24zm16 7h-1.923c-.616 0-1.077.252-1.077.889v1.111h3l-.239 3h-2.761v8h-3v-8h-2v-3h2v-1.923c0-2.022 1.064-3.077 3.461-3.077h2.539v3z"/>
  </symbol>

  <symbol id="email" viewbox="0 0 24 24">
    <path d="M12 12.713l-11.985-9.713h23.97l-11.985 9.713zm0 2.574l-12-9.725v15.438h24v-15.438l-12 9.725z"/>
  </symbol>

  <symbol id="youtube" viewbox="0 0 24 24">
    <path d="M19.615 3.184c-3.604-.246-11.631-.245-15.23 0-3.897.266-4.356 2.62-4.385 8.816.029 6.185.484 8.549 4.385 8.816 3.6.245 11.626.246 15.23 0 3.897-.266 4.356-2.62 4.385-8.816-.029-6.185-.484-8.549-4.385-8.816zm-10.615 12.816v-8l8 3.993-8 4.007z"/>
  </symbol>

</svg>